<svg width="199" height="53" viewBox="0 0 199 53" fill="none" xmlns="http://www.w3.org/2000/svg">
<g id="Group 16">
<path id="Vector" d="M31.7385 27.4628C31.6854 21.6511 36.57 18.8238 36.7933 18.6922C34.0271 14.7201 29.7394 14.1775 28.2326 14.1343C24.6316 13.7607 21.1385 16.2564 19.3037 16.2564C17.4327 16.2564 14.608 14.1699 11.5637 14.2316C7.64564 14.2911 3.98012 16.5254 1.97009 19.9941C-2.17849 27.068 0.915679 37.4627 4.88998 43.1802C6.8785 45.9823 9.20142 49.1071 12.2425 48.9972C15.2178 48.8782 16.3289 47.131 19.9189 47.131C23.4761 47.131 24.5199 48.9967 27.621 48.9269C30.814 48.8782 32.824 46.1139 34.743 43.2883C37.0403 40.0806 37.9634 36.9183 38 36.7557C37.9268 36.7304 31.8007 34.4262 31.7385 27.4628ZM25.8799 10.3727C27.4801 8.40197 28.5748 5.72059 28.271 3C25.955 3.10095 23.0589 4.57728 21.391 6.50517C19.9153 8.20368 18.5974 10.9878 18.9377 13.6057C21.5392 13.7967 24.2103 12.3132 25.8799 10.3727Z" fill="#171511"/>
<g id="Group">
<path id="Vector_2" d="M74.2636 45.3218H70.1373L67.8769 38.2214H60.0207L57.8674 45.3218H53.8506L61.636 21.1489H66.4437L74.2636 45.3218ZM67.1959 35.2428L65.1516 28.9306C64.9355 28.286 64.5283 26.7669 63.9327 24.3767H63.86C63.6199 25.405 63.2367 26.9236 62.7115 28.9302L60.7021 35.2428H67.1959ZM94.2462 36.3923C94.2462 39.3569 93.4412 41.6999 91.8296 43.42C90.3868 44.9513 88.5936 45.7163 86.4549 45.7163C84.1459 45.7163 82.4852 44.8932 81.4765 43.2439V52.3899H77.6031V33.6208C77.6031 31.7585 77.554 29.8495 77.4596 27.8915H80.8663L81.0824 30.6544H81.1551C82.4471 28.5729 84.4074 27.5319 87.0387 27.5319C89.0953 27.5319 90.8122 28.3436 92.1855 29.9698C93.5575 31.5987 94.2462 33.7388 94.2462 36.3923ZM90.2997 36.534C90.2997 34.8374 89.9183 33.4387 89.1511 32.3364C88.3139 31.1901 87.189 30.6158 85.7793 30.6158C84.8233 30.6158 83.9548 30.9359 83.1794 31.566C82.4017 32.2016 81.8928 33.0324 81.6549 34.0602C81.5485 34.4447 81.488 34.8405 81.4747 35.2392V38.147C81.4747 39.4136 81.8637 40.4832 82.6414 41.3585C83.4191 42.2301 84.4292 42.6682 85.6718 42.6682C87.1309 42.6682 88.2667 42.1035 89.0789 40.9826C89.8925 39.8581 90.2997 38.3758 90.2997 36.534ZM114.3 36.3923C114.3 39.3569 113.495 41.6999 111.883 43.42C110.438 44.9513 108.647 45.7163 106.506 45.7163C104.198 45.7163 102.537 44.8932 101.528 43.2439V52.3899H97.6547V33.6208C97.6547 31.7585 97.6057 29.8495 97.5112 27.8915H100.918L101.134 30.6544H101.207C102.496 28.5729 104.457 27.5319 107.09 27.5319C109.145 27.5319 110.862 28.3436 112.239 29.9698C113.609 31.5987 114.3 33.7388 114.3 36.3923ZM110.351 36.534C110.351 34.8374 109.968 33.4387 109.201 32.3364C108.363 31.1901 107.242 30.6158 105.832 30.6158C104.877 30.6158 104.008 30.9359 103.229 31.566C102.451 32.2016 101.944 33.0324 101.707 34.0602C101.588 34.5396 101.525 34.9301 101.525 35.2392V38.147C101.525 39.4136 101.915 40.4832 102.689 41.3585C103.467 42.2288 104.477 42.6682 105.723 42.6682C107.184 42.6682 108.32 42.1035 109.13 40.9826C109.944 39.8581 110.351 38.3758 110.351 36.534ZM136.72 38.5415C136.72 40.5994 136.001 42.2723 134.571 43.5639C132.997 44.9731 130.801 45.6795 127.985 45.6795C125.383 45.6795 123.297 45.1788 121.723 44.1741L122.619 40.9463C124.318 41.9527 126.184 42.4535 128.215 42.4535C129.676 42.4535 130.812 42.1234 131.622 41.4674C132.434 40.8101 132.845 39.9307 132.845 38.8339C132.845 37.851 132.505 37.0284 131.838 36.3578C131.168 35.6896 130.059 35.0662 128.502 34.4942C124.269 32.9157 122.15 30.6072 122.15 27.57C122.15 25.5861 122.899 23.9627 124.393 22.6929C125.886 21.4249 127.866 20.7907 130.33 20.7907C132.53 20.7907 134.363 21.1743 135.819 21.9393L134.847 25.0958C133.477 24.3549 131.931 23.9845 130.201 23.9845C128.834 23.9845 127.763 24.3204 126.996 24.9887C126.351 25.5866 126.024 26.3148 126.024 27.1796C126.024 28.133 126.396 28.9252 127.138 29.5462C127.781 30.1183 128.955 30.7416 130.652 31.4099C132.734 32.2493 134.264 33.2262 135.243 34.3489C136.23 35.4717 136.72 36.8722 136.72 38.5415ZM149.56 30.7979H145.29V39.2606C145.29 41.413 146.043 42.4866 147.551 42.4866C148.243 42.4866 148.817 42.4285 149.271 42.3069L149.379 45.2478C148.616 45.5329 147.611 45.6763 146.366 45.6763C144.836 45.6763 143.641 45.2096 142.778 44.2758C141.918 43.3419 141.486 41.7784 141.486 39.577V30.7902H138.942V27.8842H141.486V24.6927L145.29 23.5446V27.8847H149.56V30.7979ZM168.787 36.4636C168.787 39.1421 168.02 41.3421 166.491 43.0623C164.89 44.8333 162.76 45.7163 160.106 45.7163C157.544 45.7163 155.507 44.8678 153.988 43.1731C152.469 41.4752 151.71 39.3351 151.71 36.7537C151.71 34.0525 152.495 31.8402 154.059 30.1201C155.627 28.3981 157.738 27.5369 160.393 27.5369C162.951 27.5369 165.006 28.3872 166.561 30.0838C168.047 31.7295 168.787 33.8555 168.787 36.4636ZM164.772 36.5521C164.772 34.9555 164.427 33.5863 163.734 32.4399C162.922 31.0557 161.759 30.3639 160.253 30.3639C158.701 30.3639 157.511 31.0557 156.701 32.4399C156.007 33.5863 155.661 34.9791 155.661 36.6248C155.661 38.2233 156.007 39.5966 156.701 40.7392C157.538 42.1234 158.707 42.8153 160.22 42.8153C161.701 42.8153 162.862 42.1089 163.701 40.7043C164.414 39.5312 164.772 38.1529 164.772 36.5521ZM181.384 31.2973C180.981 31.2245 180.572 31.1887 180.162 31.1901C178.8 31.1901 177.746 31.7022 177.005 32.7341C176.362 33.6421 176.038 34.7907 176.038 36.1762V45.3222H172.165V33.3806C172.168 31.5509 172.13 29.7213 172.052 27.8933H175.426L175.568 31.2283H175.675C176.086 30.0819 176.729 29.1576 177.612 28.4653C178.42 27.8607 179.402 27.5333 180.412 27.5319C180.77 27.5319 181.093 27.5573 181.38 27.6027L181.384 31.2973ZM198.708 35.7822C198.718 36.3709 198.67 36.9591 198.566 37.5386H186.945C186.989 39.2606 187.552 40.5794 188.631 41.4874C189.611 42.2978 190.877 42.7045 192.432 42.7045C194.153 42.7045 195.723 42.4321 197.135 41.8819L197.742 44.5681C196.092 45.2877 194.144 45.6455 191.897 45.6455C189.193 45.6455 187.071 44.8496 185.526 43.262C183.985 41.6731 183.213 39.5366 183.213 36.8608C183.213 34.2345 183.931 32.0459 185.368 30.3003C186.873 28.4363 188.906 27.5047 191.464 27.5047C193.977 27.5047 195.879 28.4363 197.171 30.3003C198.194 31.7767 198.708 33.608 198.708 35.7822ZM195.014 34.7775C195.041 33.628 194.787 32.6379 194.262 31.8003C193.592 30.7216 192.56 30.1841 191.177 30.1841C189.91 30.1841 188.878 30.7089 188.093 31.7621C187.449 32.5997 187.065 33.6062 186.947 34.7739L195.014 34.7775ZM58.9034 12.6026C57.8257 12.6026 56.8936 12.55 56.1178 12.461V6.61751V0.774044C57.2029 0.606492 58.2994 0.523918 59.3974 0.527076C63.8401 0.527076 65.8857 2.71211 65.8857 6.27407C65.8857 10.3826 63.4692 12.6026 58.9034 12.6026ZM59.5535 2.02523C58.9543 2.02523 58.4436 2.06155 58.0204 2.14916V11.0332C58.2492 11.0695 58.6887 11.0859 59.3066 11.0859C62.2175 11.0859 63.8746 9.42881 63.8746 6.32673C63.8746 3.56015 62.3755 2.02523 59.5535 2.02523ZM72.2615 12.6916C69.7578 12.6916 68.1348 10.8225 68.1348 8.28477C68.1348 5.64031 69.7918 3.75445 72.4031 3.75445C74.8705 3.75445 76.5294 5.53498 76.5294 8.14494C76.5294 10.8225 74.8197 12.6916 72.2615 12.6916ZM72.3341 5.14637C70.9586 5.14637 70.0774 6.43206 70.0774 8.23029C70.0774 9.99402 70.9767 11.2802 72.3155 11.2802C73.6543 11.2802 74.5541 9.90504 74.5541 8.19397C74.5541 6.45067 73.6734 5.14637 72.3341 5.14637ZM90.8068 3.93105L88.1264 12.4973H86.3804L85.2704 8.77734C84.9944 7.86734 84.7645 6.94397 84.5817 6.01076H84.5454C84.4056 6.94415 84.1405 7.87982 83.8585 8.77734L82.6777 12.4973H80.9135L78.3917 3.9306H80.3483L81.3185 8.0033C81.5478 8.97347 81.7402 9.8887 81.9 10.7535H81.9364C82.0762 10.0322 82.305 9.13145 82.6414 8.02146L83.8585 3.93287H85.4103L86.5752 7.93429C86.8452 8.86427 87.0749 9.8055 87.2634 10.7554H87.3143C87.4382 9.87463 87.6321 8.93896 87.8958 7.93429L88.9368 3.93287L90.8068 3.93105ZM100.672 12.4973H98.7683V7.57837C98.7683 6.06342 98.1872 5.30391 97.0404 5.30391C95.9123 5.30391 95.1364 6.27407 95.1364 7.40222V12.4973H93.232V6.37894C93.232 5.6217 93.2138 4.80952 93.1611 3.92879H94.8364L94.9253 5.25079H94.9784C95.4905 4.33556 96.5297 3.754 97.6946 3.754C99.4933 3.754 100.674 5.12957 100.674 7.36727L100.672 12.4973ZM105.924 12.4973H104.017V0H105.924V12.4973ZM112.866 12.6916C110.364 12.6916 108.739 10.8225 108.739 8.28477C108.739 5.64031 110.396 3.75445 113.006 3.75445C115.475 3.75445 117.132 5.53498 117.132 8.14494C117.134 10.8225 115.422 12.6916 112.866 12.6916ZM112.937 5.14637C111.561 5.14637 110.68 6.43206 110.68 8.23029C110.68 9.99402 111.581 11.2802 112.917 11.2802C114.257 11.2802 115.155 9.90504 115.155 8.19397C115.157 6.45067 114.277 5.14637 112.937 5.14637ZM124.64 12.4973L124.502 11.5108H124.451C123.869 12.3048 123.021 12.6911 121.945 12.6911C120.41 12.6911 119.319 11.6161 119.319 10.1702C119.319 8.05596 121.153 6.96231 124.327 6.96231V6.80433C124.327 5.67663 123.729 5.11142 122.548 5.11142C121.704 5.11142 120.962 5.32388 120.31 5.74699L119.923 4.49581C120.715 4.00188 121.703 3.75445 122.864 3.75445C125.103 3.75445 126.233 4.93527 126.233 7.29872V10.4539C126.233 11.3183 126.271 11.9884 126.357 12.4991L124.64 12.4973ZM124.378 8.23029C122.263 8.23029 121.202 8.74284 121.202 9.9577C121.202 10.8566 121.749 11.2965 122.508 11.2965C123.476 11.2965 124.378 10.5574 124.378 9.55275V8.23029ZM135.479 12.4973L135.39 11.1217H135.338C134.791 12.1613 133.871 12.6916 132.587 12.6916C130.521 12.6916 128.991 10.8752 128.991 8.31973C128.991 5.64031 130.577 3.75264 132.743 3.75264C133.889 3.75264 134.702 4.13989 135.159 4.91711H135.197V0.000453735H137.104V10.1879C137.104 11.0164 137.124 11.7918 137.175 12.4968L135.479 12.4973ZM135.198 7.4567C135.198 6.25773 134.403 5.2349 133.192 5.2349C131.78 5.2349 130.917 6.48654 130.917 8.24845C130.917 9.97586 131.813 11.1585 133.154 11.1585C134.351 11.1585 135.197 10.1175 135.197 8.88403L135.198 7.4567ZM149.188 12.6911C146.686 12.6911 145.063 10.8225 145.063 8.28477C145.063 5.64031 146.72 3.75445 149.33 3.75445C151.799 3.75445 153.456 5.53498 153.456 8.14494C153.458 10.8225 151.748 12.6911 149.188 12.6911ZM149.259 5.14592C147.885 5.14592 147.004 6.43206 147.004 8.23029C147.004 9.99402 147.903 11.2802 149.241 11.2802C150.582 11.2802 151.479 9.90504 151.479 8.19397C151.483 6.45067 150.602 5.14592 149.259 5.14592ZM163.696 12.4973H161.79V7.57837C161.79 6.06342 161.209 5.30391 160.062 5.30391C158.934 5.30391 158.16 6.27407 158.16 7.40222V12.4973H156.254V6.37894C156.254 5.6217 156.236 4.80952 156.183 3.92879H157.858L157.947 5.25079H158C158.51 4.33556 159.551 3.75264 160.715 3.75264C162.513 3.75264 163.696 5.12731 163.696 7.36545V12.4973ZM176.507 5.35838H174.412V9.51825C174.412 10.5774 174.779 11.1058 175.52 11.1058C175.856 11.1058 176.138 11.0695 176.365 11.0169L176.418 12.4628C176.049 12.6044 175.555 12.6753 174.941 12.6753C173.44 12.6753 172.543 11.8467 172.543 9.67805V5.35838H171.292V3.93105H172.543V2.36118L174.412 1.79596V3.92879H176.507L176.507 5.35838ZM186.587 12.4973H184.685V7.61469C184.685 6.08158 184.105 5.30572 182.957 5.30572C181.971 5.30572 181.051 5.97626 181.051 7.33322V12.4973H179.149V0H181.051V5.14592H181.089C181.689 4.21253 182.558 3.75264 183.666 3.75264C185.479 3.75264 186.587 5.16226 186.587 7.40222V12.4973ZM196.915 8.67157H191.201C191.237 10.2937 192.311 11.2093 193.9 11.2093C194.745 11.2093 195.523 11.0677 196.21 10.8044L196.506 12.1268C195.695 12.4791 194.742 12.6553 193.632 12.6553C190.952 12.6553 189.366 10.9619 189.366 8.33789C189.366 5.71113 190.99 3.7363 193.417 3.7363C195.606 3.7363 196.98 5.35838 196.98 7.80854C196.993 8.09779 196.971 8.38748 196.915 8.67157ZM195.169 7.31506C195.169 5.9926 194.501 5.05875 193.285 5.05875C192.191 5.05875 191.326 6.01076 191.202 7.31506H195.169Z" fill="#171511"/>
</g>
</g>
</svg>
