<?xml version="1.0" encoding="UTF-8"?>
<svg id="Calque_2" data-name="Calque 2" xmlns="http://www.w3.org/2000/svg" viewBox="0 0 703 703">
  <defs>
    <style>
      .cls-1 {
        stroke-width: 1.91px;
      }

      .cls-1, .cls-2, .cls-3, .cls-4, .cls-5, .cls-6 {
        stroke: #70c4c0;
        stroke-miterlimit: 10;
      }

      .cls-1, .cls-6 {
        fill: #70c4c0;
      }

      .cls-7 {
        fill: #fffbf4;
      }

      .cls-2 {
        stroke-width: 42.13px;
      }

      .cls-2, .cls-3, .cls-4, .cls-5 {
        fill: none;
        stroke-linecap: round;
      }

      .cls-3 {
        stroke-width: 30.84px;
      }

      .cls-4 {
        stroke-width: 37.7px;
      }

      .cls-5 {
        stroke-width: 17px;
      }

      .cls-6 {
        stroke-width: 1.71px;
      }

      .cls-8 {
        fill: #ee8435;
      }
    </style>
  </defs>
  <g id="Calque_1-2" data-name="Calque 1">
    <g>
      <circle class="cls-7" cx="351.5" cy="351.5" r="351.5"/>
      <path class="cls-5" d="M309.42,482.75c-12.82,30.19-44.13,51.51-80.72,51.51-48,0-86.92-36.7-86.92-81.96,0-38.27,27.82-70.42,65.43-79.44"/>
      <line class="cls-4" x1="250.3" y1="319.14" x2="250.3" y2="422.19"/>
      <line class="cls-4" x1="321.29" y1="422.19" x2="251.09" y2="422.19"/>
      <line class="cls-4" x1="387.67" y1="507.35" x2="323.06" y2="423.85"/>
      <line class="cls-4" x1="413.99" y1="489.3" x2="387.67" y2="507.35"/>
      <line class="cls-3" x1="339.15" y1="362.42" x2="263.13" y2="362.31"/>
      <ellipse class="cls-6" cx="251.09" cy="255.63" rx="28.72" ry="27.08"/>
      <ellipse class="cls-1" cx="473.12" cy="252.21" rx="32.09" ry="30.26"/>
      <line class="cls-2" x1="472.23" y1="323.18" x2="472.01" y2="518.95"/>
      <path class="cls-8" d="M408.56,213.28l-10.79-21.49c2.17-3.68,3.36-7.72,3.36-11.96,0-17.17-19.57-31.09-43.7-31.09s-43.7,13.91-43.7,31.09c0,4.09,1.1,8.01,3.14,11.59l-10.84,21.62,24.74-8.59c7.38,4.05,16.62,6.46,26.66,6.46s19.2-2.38,26.56-6.41l-.19.18,24.76,8.6ZM339.03,188.14c-3.17,0-5.75-2.43-5.75-5.44s2.58-5.42,5.75-5.42,5.75,2.43,5.75,5.42-2.58,5.44-5.75,5.44ZM357.43,188.14c-3.17,0-5.75-2.43-5.75-5.44s2.58-5.42,5.75-5.42,5.75,2.43,5.75,5.42-2.58,5.44-5.75,5.44ZM375.83,188.14c-3.17,0-5.75-2.43-5.75-5.44s2.58-5.42,5.75-5.42,5.75,2.43,5.75,5.42-2.58,5.44-5.75,5.44Z"/>
      <line class="cls-3" x1="459.36" y1="362.72" x2="382.15" y2="362.01"/>
    </g>
  </g>
</svg>