<svg width="209" height="50" viewBox="0 0 209 50" fill="none" xmlns="http://www.w3.org/2000/svg">
<path d="M67.5617 6.09772C67.5617 7.61312 67.1107 8.82184 66.2087 9.70583C65.1984 10.7702 63.8815 11.3114 62.2398 11.3114C60.6702 11.3114 59.3352 10.7702 58.2528 9.68779C57.1704 8.60536 56.6292 7.25231 56.6292 5.66474C56.6292 4.07717 57.1704 2.72413 58.2528 1.64169C59.3352 0.559258 60.6702 0 62.2398 0C63.0336 0 63.7913 0.144324 64.4948 0.414933C65.1984 0.703582 65.7757 1.10047 66.2267 1.60561L65.2345 2.59784C64.9098 2.20095 64.4768 1.87622 63.9356 1.65973C63.4008 1.42707 62.8229 1.31025 62.2398 1.31696C61.0671 1.31696 60.0569 1.7319 59.245 2.54372C58.4332 3.37359 58.0363 4.4019 58.0363 5.6467C58.0363 6.8915 58.4332 7.91981 59.245 8.74968C60.0569 9.56151 61.0491 9.97644 62.2398 9.97644C63.3222 9.97644 64.2062 9.66975 64.9278 9.07441C65.6494 8.47907 66.0644 7.63117 66.1726 6.58481H62.2398V5.28589H67.4896C67.5257 5.57454 67.5617 5.84515 67.5617 6.09772ZM75.8785 0.252567V1.58757H70.9534V5.01528H75.3914V6.3142H70.9534V9.74191H75.8785V11.0769H69.5642V0.252567H75.8785ZM81.7416 1.58757V11.0769H80.3525V1.58757H77.3217V0.252567H84.7544V1.58757H81.7416ZM91.5377 11.0769H90.1486V0.252567H91.5377V11.0769ZM97.7076 1.58757V11.0769H96.3184V1.58757H93.2876V0.252567H100.72V1.58757H97.7076ZM116.398 5.66474C116.398 7.27035 115.856 8.60536 114.792 9.68779C113.71 10.7702 112.393 11.3114 110.823 11.3114C109.254 11.3114 107.937 10.7702 106.854 9.68779C105.79 8.60536 105.249 7.27035 105.249 5.66474C105.249 4.05913 105.79 2.72413 106.854 1.64169C107.919 0.559258 109.236 0 110.823 0C112.393 0 113.71 0.541217 114.792 1.64169C115.874 2.74217 116.398 4.07717 116.398 5.66474ZM106.692 5.66474C106.692 6.90954 107.089 7.95589 107.864 8.76772C108.658 9.57955 109.65 9.99448 110.823 9.99448C111.996 9.99448 112.988 9.57955 113.764 8.76772C114.557 7.95589 114.954 6.92758 114.954 5.66474C114.954 4.4019 114.557 3.37359 113.764 2.56176C112.97 1.74994 111.996 1.335 110.823 1.335C109.65 1.335 108.658 1.74994 107.864 2.56176C107.089 3.37359 106.692 4.41994 106.692 5.66474ZM119.735 11.0769H118.346V0.252567H120.042L125.31 8.67752H125.364L125.31 6.58481V0.252567H126.699V11.0769H125.256L119.753 2.25507H119.699L119.753 4.34778V11.0769H119.735Z" fill="#1E1E1E"/>
<mask id="path-2-inside-1_312_15" fill="white">
<path d="M104.942 26.8619C100.702 26.8619 97.2384 30.0912 97.2384 34.5291C97.2384 38.9491 100.702 42.1964 104.942 42.1964C109.181 42.1964 112.645 38.9491 112.645 34.5291C112.645 30.0912 109.181 26.8619 104.942 26.8619ZM104.942 39.1836C102.615 39.1836 100.612 37.2713 100.612 34.5291C100.612 31.7689 102.615 29.8747 104.942 29.8747C107.269 29.8747 109.271 31.7689 109.271 34.5291C109.271 37.2713 107.251 39.1836 104.942 39.1836ZM88.1279 26.8619C83.8884 26.8619 80.4246 30.0912 80.4246 34.5291C80.4246 38.9491 83.8884 42.1964 88.1279 42.1964C92.3675 42.1964 95.8312 38.9491 95.8312 34.5291C95.8312 30.0912 92.3675 26.8619 88.1279 26.8619ZM88.1279 39.1836C85.8007 39.1836 83.7982 37.2713 83.7982 34.5291C83.7982 31.7689 85.8007 29.8747 88.1279 29.8747C90.4551 29.8747 92.4577 31.7689 92.4577 34.5291C92.4577 37.2713 90.4551 39.1836 88.1279 39.1836ZM68.139 29.2252V32.4725H75.9325C75.698 34.2946 75.0846 35.6477 74.1645 36.5677C73.0279 37.7043 71.26 38.9491 68.157 38.9491C63.3582 38.9491 59.6057 35.0884 59.6057 30.2896C59.6057 25.4908 63.3582 21.6301 68.157 21.6301C70.7368 21.6301 72.6311 22.6404 74.0202 23.9574L76.3113 21.6662C74.3629 19.808 71.7831 18.3828 68.139 18.3828C61.5722 18.3828 56.0518 23.7228 56.0518 30.3076C56.0518 36.8744 61.5722 42.2325 68.139 42.2325C71.6929 42.2325 74.3629 41.0779 76.4557 38.895C78.6025 36.7481 79.27 33.7173 79.27 31.2818C79.27 30.5241 79.2159 29.8205 79.0896 29.2432H68.139V29.2252ZM149.881 31.7509C149.249 30.037 147.301 26.8619 143.314 26.8619C139.363 26.8619 136.08 29.9649 136.08 34.5291C136.08 38.8228 139.327 42.1964 143.693 42.1964C147.211 42.1964 149.249 40.0496 150.079 38.8048L147.463 37.0548C146.597 38.3357 145.407 39.1836 143.693 39.1836C141.979 39.1836 140.752 38.4079 139.977 36.8564L150.242 32.6168L149.881 31.7509ZM139.417 34.3127C139.327 31.354 141.708 29.8386 143.422 29.8386C144.757 29.8386 145.894 30.5061 146.273 31.4622L139.417 34.3127ZM131.083 41.7454H134.456V19.1946H131.083V41.7454ZM125.562 28.5757H125.436C124.678 27.6737 123.235 26.8619 121.395 26.8619C117.552 26.8619 114.034 30.2355 114.034 34.5652C114.034 38.8589 117.552 42.2144 121.395 42.2144C123.217 42.2144 124.678 41.4026 125.436 40.4645H125.544V41.565C125.544 44.5056 123.975 46.0751 121.449 46.0751C119.392 46.0751 118.111 44.5958 117.588 43.351L114.648 44.5777C115.495 46.6163 117.733 49.1059 121.449 49.1059C125.4 49.1059 128.737 46.7787 128.737 41.114V27.3309H125.544V28.5757H125.562ZM121.683 39.1836C119.356 39.1836 117.408 37.2352 117.408 34.5652C117.408 31.8591 119.356 29.8927 121.683 29.8927C123.975 29.8927 125.779 31.8772 125.779 34.5652C125.797 37.2352 123.993 39.1836 121.683 39.1836ZM165.684 19.1946H157.62V41.7454H160.994V33.1941H165.702C169.437 33.1941 173.099 30.488 173.099 26.1944C173.081 21.9007 169.401 19.1946 165.684 19.1946ZM165.757 30.0551H160.976V22.3157H165.757C168.282 22.3157 169.707 24.4084 169.707 26.1763C169.707 27.9443 168.282 30.0551 165.757 30.0551ZM186.575 26.8258C184.14 26.8258 181.614 27.9082 180.568 30.2716L183.563 31.5164C184.194 30.2716 185.385 29.8566 186.629 29.8566C188.361 29.8566 190.147 30.903 190.165 32.7612V32.9957C189.552 32.6529 188.253 32.1297 186.648 32.1297C183.418 32.1297 180.153 33.8977 180.153 37.1991C180.153 40.2119 182.787 42.1603 185.746 42.1603C188.001 42.1603 189.263 41.15 190.039 39.9593H190.147V41.6912H193.395V33.0498C193.413 29.0628 190.418 26.8258 186.575 26.8258ZM186.16 39.1836C185.06 39.1836 183.527 38.6243 183.527 37.2713C183.527 35.5394 185.439 34.8719 187.099 34.8719C188.578 34.8719 189.281 35.1966 190.165 35.6296C190.04 36.6061 189.566 37.5041 188.829 38.1575C188.093 38.8109 187.145 39.1755 186.16 39.1836ZM205.247 27.3129L201.387 37.0909H201.278L197.273 27.3129H193.647L199.655 40.9877L196.227 48.5828H199.745L209 27.3129H205.247ZM174.939 41.7454H178.313V19.1946H174.939V41.7454Z"/>
</mask>
<path d="M104.942 26.8619C100.702 26.8619 97.2384 30.0912 97.2384 34.5291C97.2384 38.9491 100.702 42.1964 104.942 42.1964C109.181 42.1964 112.645 38.9491 112.645 34.5291C112.645 30.0912 109.181 26.8619 104.942 26.8619ZM104.942 39.1836C102.615 39.1836 100.612 37.2713 100.612 34.5291C100.612 31.7689 102.615 29.8747 104.942 29.8747C107.269 29.8747 109.271 31.7689 109.271 34.5291C109.271 37.2713 107.251 39.1836 104.942 39.1836ZM88.1279 26.8619C83.8884 26.8619 80.4246 30.0912 80.4246 34.5291C80.4246 38.9491 83.8884 42.1964 88.1279 42.1964C92.3675 42.1964 95.8312 38.9491 95.8312 34.5291C95.8312 30.0912 92.3675 26.8619 88.1279 26.8619ZM88.1279 39.1836C85.8007 39.1836 83.7982 37.2713 83.7982 34.5291C83.7982 31.7689 85.8007 29.8747 88.1279 29.8747C90.4551 29.8747 92.4577 31.7689 92.4577 34.5291C92.4577 37.2713 90.4551 39.1836 88.1279 39.1836ZM68.139 29.2252V32.4725H75.9325C75.698 34.2946 75.0846 35.6477 74.1645 36.5677C73.0279 37.7043 71.26 38.9491 68.157 38.9491C63.3582 38.9491 59.6057 35.0884 59.6057 30.2896C59.6057 25.4908 63.3582 21.6301 68.157 21.6301C70.7368 21.6301 72.6311 22.6404 74.0202 23.9574L76.3113 21.6662C74.3629 19.808 71.7831 18.3828 68.139 18.3828C61.5722 18.3828 56.0518 23.7228 56.0518 30.3076C56.0518 36.8744 61.5722 42.2325 68.139 42.2325C71.6929 42.2325 74.3629 41.0779 76.4557 38.895C78.6025 36.7481 79.27 33.7173 79.27 31.2818C79.27 30.5241 79.2159 29.8205 79.0896 29.2432H68.139V29.2252ZM149.881 31.7509C149.249 30.037 147.301 26.8619 143.314 26.8619C139.363 26.8619 136.08 29.9649 136.08 34.5291C136.08 38.8228 139.327 42.1964 143.693 42.1964C147.211 42.1964 149.249 40.0496 150.079 38.8048L147.463 37.0548C146.597 38.3357 145.407 39.1836 143.693 39.1836C141.979 39.1836 140.752 38.4079 139.977 36.8564L150.242 32.6168L149.881 31.7509ZM139.417 34.3127C139.327 31.354 141.708 29.8386 143.422 29.8386C144.757 29.8386 145.894 30.5061 146.273 31.4622L139.417 34.3127ZM131.083 41.7454H134.456V19.1946H131.083V41.7454ZM125.562 28.5757H125.436C124.678 27.6737 123.235 26.8619 121.395 26.8619C117.552 26.8619 114.034 30.2355 114.034 34.5652C114.034 38.8589 117.552 42.2144 121.395 42.2144C123.217 42.2144 124.678 41.4026 125.436 40.4645H125.544V41.565C125.544 44.5056 123.975 46.0751 121.449 46.0751C119.392 46.0751 118.111 44.5958 117.588 43.351L114.648 44.5777C115.495 46.6163 117.733 49.1059 121.449 49.1059C125.4 49.1059 128.737 46.7787 128.737 41.114V27.3309H125.544V28.5757H125.562ZM121.683 39.1836C119.356 39.1836 117.408 37.2352 117.408 34.5652C117.408 31.8591 119.356 29.8927 121.683 29.8927C123.975 29.8927 125.779 31.8772 125.779 34.5652C125.797 37.2352 123.993 39.1836 121.683 39.1836ZM165.684 19.1946H157.62V41.7454H160.994V33.1941H165.702C169.437 33.1941 173.099 30.488 173.099 26.1944C173.081 21.9007 169.401 19.1946 165.684 19.1946ZM165.757 30.0551H160.976V22.3157H165.757C168.282 22.3157 169.707 24.4084 169.707 26.1763C169.707 27.9443 168.282 30.0551 165.757 30.0551ZM186.575 26.8258C184.14 26.8258 181.614 27.9082 180.568 30.2716L183.563 31.5164C184.194 30.2716 185.385 29.8566 186.629 29.8566C188.361 29.8566 190.147 30.903 190.165 32.7612V32.9957C189.552 32.6529 188.253 32.1297 186.648 32.1297C183.418 32.1297 180.153 33.8977 180.153 37.1991C180.153 40.2119 182.787 42.1603 185.746 42.1603C188.001 42.1603 189.263 41.15 190.039 39.9593H190.147V41.6912H193.395V33.0498C193.413 29.0628 190.418 26.8258 186.575 26.8258ZM186.16 39.1836C185.06 39.1836 183.527 38.6243 183.527 37.2713C183.527 35.5394 185.439 34.8719 187.099 34.8719C188.578 34.8719 189.281 35.1966 190.165 35.6296C190.04 36.6061 189.566 37.5041 188.829 38.1575C188.093 38.8109 187.145 39.1755 186.16 39.1836ZM205.247 27.3129L201.387 37.0909H201.278L197.273 27.3129H193.647L199.655 40.9877L196.227 48.5828H199.745L209 27.3129H205.247ZM174.939 41.7454H178.313V19.1946H174.939V41.7454Z" fill="#1E1E1E" stroke="#1E1E1E" stroke-width="30" mask="url(#path-2-inside-1_312_15)"/>
<path d="M19.3938 24.1529L0.180542 44.5387V44.5568C0.388438 45.329 0.771976 46.0428 1.30122 46.6423C1.83047 47.2419 2.49111 47.711 3.23159 48.0132C3.97206 48.3153 4.77233 48.4422 5.56995 48.384C6.36757 48.3259 7.14095 48.0842 7.82975 47.6778L7.88387 47.6417L29.4965 35.1757L19.3938 24.1529Z" fill="#EA4335"/>
<path d="M38.8235 20.6891L38.8055 20.671L29.4785 15.2589L18.9608 24.6219L29.5146 35.1757L38.8055 29.8176C39.6272 29.3727 40.3139 28.7145 40.7929 27.9122C41.272 27.1098 41.5259 26.1932 41.5277 25.2587C41.5296 24.3242 41.2793 23.4066 40.8034 22.6023C40.3275 21.7981 39.6435 21.1372 38.8235 20.6891Z" fill="#FBBC04"/>
<path d="M0.180407 5.85971C0.072163 6.29268 0 6.72566 0 7.19471V43.2218C0 43.6908 0.0541224 44.1238 0.180407 44.5568L20.0431 24.6941L0.180407 5.85971Z" fill="#4285F4"/>
<path d="M19.5381 25.1992L29.4785 15.2589L7.88387 2.73869C7.19355 2.32591 6.41706 2.07851 5.61519 2.01584C4.81331 1.95318 4.00782 2.07695 3.26175 2.37748C2.51568 2.678 1.8493 3.14711 1.31475 3.7481C0.780204 4.34909 0.392004 5.06565 0.180542 5.84167L19.5381 25.1992Z" fill="#34A853"/>
</svg>
