<svg width="42" height="47" viewBox="0 0 42 47" fill="none" xmlns="http://www.w3.org/2000/svg">
<g id="Group 19">
<path id="Vector" d="M19.3938 22.1529L0.180542 42.5387V42.5568C0.388438 43.329 0.771976 44.0428 1.30122 44.6423C1.83047 45.2419 2.49111 45.711 3.23159 46.0132C3.97206 46.3153 4.77233 46.4422 5.56995 46.384C6.36757 46.3259 7.14095 46.0842 7.82975 45.6778L7.88387 45.6417L29.4965 33.1757L19.3938 22.1529Z" fill="#EA4335"/>
<path id="Vector_2" d="M38.8235 18.6891L38.8055 18.671L29.4785 13.2589L18.9608 22.6219L29.5146 33.1757L38.8055 27.8176C39.6272 27.3727 40.3139 26.7145 40.7929 25.9122C41.272 25.1098 41.5259 24.1932 41.5277 23.2587C41.5296 22.3242 41.2793 21.4066 40.8034 20.6023C40.3275 19.7981 39.6435 19.1372 38.8235 18.6891Z" fill="#FBBC04"/>
<path id="Vector_3" d="M0.180407 3.85971C0.072163 4.29268 0 4.72566 0 5.19471V41.2218C0 41.6908 0.0541224 42.1238 0.180407 42.5568L20.0431 22.6941L0.180407 3.85971Z" fill="#4285F4"/>
<path id="Vector_4" d="M19.5381 23.1992L29.4785 13.2589L7.88387 0.738688C7.19355 0.325912 6.41706 0.0785094 5.61519 0.0158436C4.81331 -0.0468222 4.00782 0.0769525 3.26175 0.377476C2.51568 0.677999 1.8493 1.14711 1.31475 1.7481C0.780204 2.34909 0.392004 3.06565 0.180542 3.84167L19.5381 23.1992Z" fill="#34A853"/>
</g>
</svg>
