<svg width="153" height="50" viewBox="0 0 153 50" fill="none" xmlns="http://www.w3.org/2000/svg">
<g id="Group">
<path id="Vector" d="M11.5617 6.09772C11.5617 7.61312 11.1107 8.82184 10.2087 9.70583C9.19842 10.7702 7.88147 11.3114 6.23977 11.3114C4.67024 11.3114 3.33523 10.7702 2.2528 9.68779C1.17036 8.60536 0.62915 7.25231 0.62915 5.66474C0.62915 4.07717 1.17036 2.72413 2.2528 1.64169C3.33523 0.559258 4.67024 0 6.23977 0C7.03356 0 7.79126 0.144324 8.49485 0.414933C9.19843 0.703582 9.77573 1.10047 10.2267 1.60561L9.23451 2.59784C8.90978 2.20095 8.4768 1.87622 7.93559 1.65973C7.40084 1.42707 6.8229 1.31025 6.23977 1.31696C5.06714 1.31696 4.05686 1.7319 3.24504 2.54372C2.43321 3.37359 2.03631 4.4019 2.03631 5.6467C2.03631 6.8915 2.43321 7.91981 3.24504 8.74968C4.05686 9.56151 5.04909 9.97644 6.23977 9.97644C7.32221 9.97644 8.20619 9.66975 8.92782 9.07441C9.64944 8.47907 10.0644 7.63117 10.1726 6.58481H6.23977V5.28589H11.4896C11.5257 5.57454 11.5617 5.84515 11.5617 6.09772ZM19.8785 0.252567V1.58757H14.9534V5.01528H19.3914V6.3142H14.9534V9.74191H19.8785V11.0769H13.5642V0.252567H19.8785ZM25.7416 1.58757V11.0769H24.3525V1.58757H21.3217V0.252567H28.7544V1.58757H25.7416ZM35.5377 11.0769H34.1486V0.252567H35.5377V11.0769ZM41.7076 1.58757V11.0769H40.3184V1.58757H37.2876V0.252567H44.7203V1.58757H41.7076ZM60.3976 5.66474C60.3976 7.27035 59.8564 8.60536 58.792 9.68779C57.7096 10.7702 56.3926 11.3114 54.8231 11.3114C53.2535 11.3114 51.9366 10.7702 50.8541 9.68779C49.7897 8.60536 49.2485 7.27035 49.2485 5.66474C49.2485 4.05913 49.7897 2.72413 50.8541 1.64169C51.9185 0.559258 53.2355 0 54.8231 0C56.3926 0 57.7096 0.541217 58.792 1.64169C59.8744 2.74217 60.3976 4.07717 60.3976 5.66474ZM50.6918 5.66474C50.6918 6.90954 51.0887 7.95589 51.8644 8.76772C52.6582 9.57955 53.6504 9.99448 54.8231 9.99448C55.9957 9.99448 56.9879 9.57955 57.7637 8.76772C58.5575 7.95589 58.9544 6.92758 58.9544 5.66474C58.9544 4.4019 58.5575 3.37359 57.7637 2.56176C56.9699 1.74994 55.9957 1.335 54.8231 1.335C53.6504 1.335 52.6582 1.74994 51.8644 2.56176C51.0887 3.37359 50.6918 4.41994 50.6918 5.66474ZM63.7351 11.0769H62.346V0.252567H64.0418L69.3097 8.67752H69.3638L69.3097 6.58481V0.252567H70.6988V11.0769H69.2555L63.7532 2.25507H63.699L63.7532 4.34778V11.0769H63.7351Z" fill="#1E1E1E"/>
<g id="Vector_2">
<mask id="path-2-inside-1_242_35" fill="white">
<path d="M48.9417 26.8619C44.7022 26.8619 41.2384 30.0912 41.2384 34.5291C41.2384 38.9491 44.7022 42.1964 48.9417 42.1964C53.1813 42.1964 56.6451 38.9491 56.6451 34.5291C56.6451 30.0912 53.1813 26.8619 48.9417 26.8619ZM48.9417 39.1836C46.6145 39.1836 44.612 37.2713 44.612 34.5291C44.612 31.7689 46.6145 29.8747 48.9417 29.8747C51.269 29.8747 53.2715 31.7689 53.2715 34.5291C53.2715 37.2713 51.2509 39.1836 48.9417 39.1836ZM32.1279 26.8619C27.8884 26.8619 24.4246 30.0912 24.4246 34.5291C24.4246 38.9491 27.8884 42.1964 32.1279 42.1964C36.3674 42.1964 39.8312 38.9491 39.8312 34.5291C39.8312 30.0912 36.3674 26.8619 32.1279 26.8619ZM32.1279 39.1836C29.8007 39.1836 27.7982 37.2713 27.7982 34.5291C27.7982 31.7689 29.8007 29.8747 32.1279 29.8747C34.4551 29.8747 36.4577 31.7689 36.4577 34.5291C36.4577 37.2713 34.4551 39.1836 32.1279 39.1836ZM12.1389 29.2252V32.4725H19.9325C19.698 34.2946 19.0846 35.6477 18.1645 36.5677C17.0279 37.7043 15.26 38.9491 12.157 38.9491C7.35819 38.9491 3.60575 35.0884 3.60575 30.2896C3.60575 25.4908 7.35819 21.6301 12.157 21.6301C14.7368 21.6301 16.6311 22.6404 18.0202 23.9574L20.3113 21.6662C18.3629 19.808 15.7831 18.3828 12.1389 18.3828C5.57218 18.3828 0.0517578 23.7228 0.0517578 30.3076C0.0517578 36.8744 5.57218 42.2325 12.1389 42.2325C15.6929 42.2325 18.3629 41.0779 20.4557 38.895C22.6025 36.7481 23.27 33.7173 23.27 31.2818C23.27 30.5241 23.2159 29.8205 23.0896 29.2432H12.1389V29.2252ZM93.8808 31.7509C93.2494 30.037 91.301 26.8619 87.3141 26.8619C83.3632 26.8619 80.0798 29.9649 80.0798 34.5291C80.0798 38.8228 83.3271 42.1964 87.6929 42.1964C91.2108 42.1964 93.2494 40.0496 94.0793 38.8048L91.4634 37.0548C90.5974 38.3357 89.4068 39.1836 87.6929 39.1836C85.9791 39.1836 84.7523 38.4079 83.9765 36.8564L94.2416 32.6168L93.8808 31.7509ZM83.4173 34.3127C83.3271 31.354 85.7084 29.8386 87.4223 29.8386C88.7573 29.8386 89.8939 30.5061 90.2727 31.4622L83.4173 34.3127ZM75.0825 41.7454H78.4561V19.1946H75.0825V41.7454ZM69.5621 28.5757H69.4358C68.6781 27.6737 67.2349 26.8619 65.3948 26.8619C61.5521 26.8619 58.0342 30.2355 58.0342 34.5652C58.0342 38.8589 61.5521 42.2144 65.3948 42.2144C67.2169 42.2144 68.6781 41.4026 69.4358 40.4645H69.5441V41.565C69.5441 44.5056 67.9746 46.0751 65.4489 46.0751C63.3922 46.0751 62.1114 44.5958 61.5882 43.351L58.6476 44.5777C59.4955 46.6163 61.7325 49.1059 65.4489 49.1059C69.3998 49.1059 72.7373 46.7787 72.7373 41.114V27.3309H69.5441V28.5757H69.5621ZM65.6834 39.1836C63.3562 39.1836 61.4078 37.2352 61.4078 34.5652C61.4078 31.8591 63.3562 29.8927 65.6834 29.8927C67.9745 29.8927 69.7786 31.8772 69.7786 34.5652C69.7967 37.2352 67.9926 39.1836 65.6834 39.1836ZM109.684 19.1946H101.62V41.7454H104.994V33.1941H109.702C113.437 33.1941 117.099 30.488 117.099 26.1944C117.081 21.9007 113.401 19.1946 109.684 19.1946ZM109.757 30.0551H104.976V22.3157H109.757C112.282 22.3157 113.707 24.4084 113.707 26.1763C113.707 27.9443 112.282 30.0551 109.757 30.0551ZM130.575 26.8258C128.14 26.8258 125.614 27.9082 124.568 30.2716L127.563 31.5164C128.194 30.2716 129.385 29.8566 130.629 29.8566C132.361 29.8566 134.147 30.903 134.165 32.7612V32.9957C133.552 32.6529 132.253 32.1297 130.648 32.1297C127.418 32.1297 124.153 33.8977 124.153 37.1991C124.153 40.2119 126.787 42.1603 129.746 42.1603C132.001 42.1603 133.263 41.15 134.039 39.9593H134.147V41.6912H137.395V33.0498C137.413 29.0628 134.418 26.8258 130.575 26.8258ZM130.16 39.1836C129.06 39.1836 127.527 38.6243 127.527 37.2713C127.527 35.5394 129.439 34.8719 131.099 34.8719C132.578 34.8719 133.281 35.1966 134.165 35.6296C134.04 36.6061 133.566 37.5041 132.829 38.1575C132.093 38.8109 131.145 39.1755 130.16 39.1836ZM149.247 27.3129L145.387 37.0909H145.278L141.273 27.3129H137.647L143.655 40.9877L140.227 48.5828H143.745L153 27.3129H149.247ZM118.939 41.7454H122.313V19.1946H118.939V41.7454Z"/>
</mask>
<path d="M48.9417 26.8619C44.7022 26.8619 41.2384 30.0912 41.2384 34.5291C41.2384 38.9491 44.7022 42.1964 48.9417 42.1964C53.1813 42.1964 56.6451 38.9491 56.6451 34.5291C56.6451 30.0912 53.1813 26.8619 48.9417 26.8619ZM48.9417 39.1836C46.6145 39.1836 44.612 37.2713 44.612 34.5291C44.612 31.7689 46.6145 29.8747 48.9417 29.8747C51.269 29.8747 53.2715 31.7689 53.2715 34.5291C53.2715 37.2713 51.2509 39.1836 48.9417 39.1836ZM32.1279 26.8619C27.8884 26.8619 24.4246 30.0912 24.4246 34.5291C24.4246 38.9491 27.8884 42.1964 32.1279 42.1964C36.3674 42.1964 39.8312 38.9491 39.8312 34.5291C39.8312 30.0912 36.3674 26.8619 32.1279 26.8619ZM32.1279 39.1836C29.8007 39.1836 27.7982 37.2713 27.7982 34.5291C27.7982 31.7689 29.8007 29.8747 32.1279 29.8747C34.4551 29.8747 36.4577 31.7689 36.4577 34.5291C36.4577 37.2713 34.4551 39.1836 32.1279 39.1836ZM12.1389 29.2252V32.4725H19.9325C19.698 34.2946 19.0846 35.6477 18.1645 36.5677C17.0279 37.7043 15.26 38.9491 12.157 38.9491C7.35819 38.9491 3.60575 35.0884 3.60575 30.2896C3.60575 25.4908 7.35819 21.6301 12.157 21.6301C14.7368 21.6301 16.6311 22.6404 18.0202 23.9574L20.3113 21.6662C18.3629 19.808 15.7831 18.3828 12.1389 18.3828C5.57218 18.3828 0.0517578 23.7228 0.0517578 30.3076C0.0517578 36.8744 5.57218 42.2325 12.1389 42.2325C15.6929 42.2325 18.3629 41.0779 20.4557 38.895C22.6025 36.7481 23.27 33.7173 23.27 31.2818C23.27 30.5241 23.2159 29.8205 23.0896 29.2432H12.1389V29.2252ZM93.8808 31.7509C93.2494 30.037 91.301 26.8619 87.3141 26.8619C83.3632 26.8619 80.0798 29.9649 80.0798 34.5291C80.0798 38.8228 83.3271 42.1964 87.6929 42.1964C91.2108 42.1964 93.2494 40.0496 94.0793 38.8048L91.4634 37.0548C90.5974 38.3357 89.4068 39.1836 87.6929 39.1836C85.9791 39.1836 84.7523 38.4079 83.9765 36.8564L94.2416 32.6168L93.8808 31.7509ZM83.4173 34.3127C83.3271 31.354 85.7084 29.8386 87.4223 29.8386C88.7573 29.8386 89.8939 30.5061 90.2727 31.4622L83.4173 34.3127ZM75.0825 41.7454H78.4561V19.1946H75.0825V41.7454ZM69.5621 28.5757H69.4358C68.6781 27.6737 67.2349 26.8619 65.3948 26.8619C61.5521 26.8619 58.0342 30.2355 58.0342 34.5652C58.0342 38.8589 61.5521 42.2144 65.3948 42.2144C67.2169 42.2144 68.6781 41.4026 69.4358 40.4645H69.5441V41.565C69.5441 44.5056 67.9746 46.0751 65.4489 46.0751C63.3922 46.0751 62.1114 44.5958 61.5882 43.351L58.6476 44.5777C59.4955 46.6163 61.7325 49.1059 65.4489 49.1059C69.3998 49.1059 72.7373 46.7787 72.7373 41.114V27.3309H69.5441V28.5757H69.5621ZM65.6834 39.1836C63.3562 39.1836 61.4078 37.2352 61.4078 34.5652C61.4078 31.8591 63.3562 29.8927 65.6834 29.8927C67.9745 29.8927 69.7786 31.8772 69.7786 34.5652C69.7967 37.2352 67.9926 39.1836 65.6834 39.1836ZM109.684 19.1946H101.62V41.7454H104.994V33.1941H109.702C113.437 33.1941 117.099 30.488 117.099 26.1944C117.081 21.9007 113.401 19.1946 109.684 19.1946ZM109.757 30.0551H104.976V22.3157H109.757C112.282 22.3157 113.707 24.4084 113.707 26.1763C113.707 27.9443 112.282 30.0551 109.757 30.0551ZM130.575 26.8258C128.14 26.8258 125.614 27.9082 124.568 30.2716L127.563 31.5164C128.194 30.2716 129.385 29.8566 130.629 29.8566C132.361 29.8566 134.147 30.903 134.165 32.7612V32.9957C133.552 32.6529 132.253 32.1297 130.648 32.1297C127.418 32.1297 124.153 33.8977 124.153 37.1991C124.153 40.2119 126.787 42.1603 129.746 42.1603C132.001 42.1603 133.263 41.15 134.039 39.9593H134.147V41.6912H137.395V33.0498C137.413 29.0628 134.418 26.8258 130.575 26.8258ZM130.16 39.1836C129.06 39.1836 127.527 38.6243 127.527 37.2713C127.527 35.5394 129.439 34.8719 131.099 34.8719C132.578 34.8719 133.281 35.1966 134.165 35.6296C134.04 36.6061 133.566 37.5041 132.829 38.1575C132.093 38.8109 131.145 39.1755 130.16 39.1836ZM149.247 27.3129L145.387 37.0909H145.278L141.273 27.3129H137.647L143.655 40.9877L140.227 48.5828H143.745L153 27.3129H149.247ZM118.939 41.7454H122.313V19.1946H118.939V41.7454Z" fill="#1E1E1E" stroke="#1E1E1E" stroke-width="30" mask="url(#path-2-inside-1_242_35)"/>
</g>
</g>
</svg>
