<svg width="182" height="182" viewBox="0 0 182 182" fill="none" xmlns="http://www.w3.org/2000/svg">
<path d="M91 182C141.258 182 182 141.258 182 91C182 40.7421 141.258 0 91 0C40.7421 0 0 40.7421 0 91C0 141.258 40.7421 182 91 182Z" fill="#FFFBF4"/>
<path d="M69.1157 56.9126C75.9893 56.9126 81.5615 51.3404 81.5615 44.4668C81.5615 37.5932 75.9893 32.021 69.1157 32.021C62.2421 32.021 56.6699 37.5932 56.6699 44.4668C56.6699 51.3404 62.2421 56.9126 69.1157 56.9126Z" fill="#70C4C0" stroke="#70C4C0" stroke-width="1.16" stroke-miterlimit="10"/>
<path d="M68.7676 73.6514L69.1024 143.541" stroke="#70C4C0" stroke-width="16" stroke-miterlimit="10" stroke-linecap="round"/>
<path d="M104.031 108.152H72.9229" stroke="#70C4C0" stroke-width="16" stroke-miterlimit="10" stroke-linecap="round"/>
<path d="M112.689 90.7842L112.703 143.541" stroke="#70C4C0" stroke-width="16" stroke-miterlimit="10" stroke-linecap="round"/>
<path d="M112.886 77.813C119.76 77.813 125.332 72.2408 125.332 65.3672C125.332 58.4936 119.76 52.9214 112.886 52.9214C106.013 52.9214 100.44 58.4936 100.44 65.3672C100.44 72.2408 106.013 77.813 112.886 77.813Z" fill="#70C4C0" stroke="#70C4C0" stroke-width="1.16" stroke-miterlimit="10"/>
<path d="M115.13 44.1908L111.894 37.3443C112.544 36.1759 112.905 34.8827 112.905 33.537C112.905 28.069 107.03 23.6382 99.7829 23.6382C92.536 23.6382 86.661 28.069 86.661 33.537C86.661 34.8433 86.9892 36.0905 87.6063 37.2261L84.3504 44.112L91.7811 41.3747C93.9933 42.6613 96.7699 43.4294 99.7895 43.4294C102.809 43.4294 105.553 42.6679 107.765 41.3879L107.706 41.447L115.143 44.1842L115.13 44.1908ZM94.2493 36.189C93.2975 36.189 92.5229 35.4144 92.5229 34.456C92.5229 33.4977 93.2975 32.7296 94.2493 32.7296C95.2011 32.7296 95.9757 33.5042 95.9757 34.456C95.9757 35.4079 95.2011 36.189 94.2493 36.189ZM99.7764 36.189C98.8245 36.189 98.05 35.4144 98.05 34.456C98.05 33.4977 98.8245 32.7296 99.7764 32.7296C100.728 32.7296 101.503 33.5042 101.503 34.456C101.503 35.4079 100.728 36.189 99.7764 36.189ZM105.303 36.189C104.352 36.189 103.577 35.4144 103.577 34.456C103.577 33.4977 104.352 32.7296 105.303 32.7296C106.255 32.7296 107.03 33.5042 107.03 34.456C107.03 35.4079 106.255 36.189 105.303 36.189Z" fill="#EE8435"/>
</svg>
